<?xml version="1.0" encoding="UTF-8" standalone="no"?>
<!-- Created with Inkscape (http://www.inkscape.org/) -->

<svg
   xmlns:dc="http://purl.org/dc/elements/1.1/"
   xmlns:cc="http://creativecommons.org/ns#"
   xmlns:rdf="http://www.w3.org/1999/02/22-rdf-syntax-ns#"
   xmlns:svg="http://www.w3.org/2000/svg"
   xmlns="http://www.w3.org/2000/svg"
   xmlns:sodipodi="http://sodipodi.sourceforge.net/DTD/sodipodi-0.dtd"
   xmlns:inkscape="http://www.inkscape.org/namespaces/inkscape"
   width="188.79883"
   height="55"
   viewBox="0 0 49.953022 14.552084"
   version="1.1"
   id="svg8"
   inkscape:version="0.92.3 (unknown)"
   sodipodi:docname="logo.svg">
  <defs
     id="defs2" />
  <sodipodi:namedview
     id="base"
     pagecolor="#ffffff"
     bordercolor="#666666"
     borderopacity="1.0"
     inkscape:pageopacity="0.0"
     inkscape:pageshadow="2"
     inkscape:zoom="1.3404872"
     inkscape:cx="4.875205"
     inkscape:cy="113.75093"
     inkscape:document-units="px"
     inkscape:current-layer="svg8"
     showgrid="true"
     units="px"
     inkscape:window-width="1366"
     inkscape:window-height="713"
     inkscape:window-x="0"
     inkscape:window-y="27"
     inkscape:window-maximized="1"
     inkscape:snap-bbox="true"
     inkscape:bbox-nodes="true"
     showguides="true"
     fit-margin-top="5"
     fit-margin-left="5"
     fit-margin-right="5"
     fit-margin-bottom="5">
    <inkscape:grid
       type="xygrid"
       id="grid816"
       originx="-52.916664"
       originy="-138.90629" />
  </sodipodi:namedview>
  <metadata
     id="metadata5">
    <rdf:RDF>
      <cc:Work
         rdf:about="">
        <dc:format>image/svg+xml</dc:format>
        <dc:type
           rdf:resource="http://purl.org/dc/dcmitype/StillImage" />
        <dc:title></dc:title>
      </cc:Work>
    </rdf:RDF>
  </metadata>
  <path
     inkscape:connector-curvature="0"
     id="path818"
     d="M 11.921236,1.3229205 V 13.039001 h 2.34301 V 7.655868 c 0,-0.2005462 0.04268,-0.3746764 0.127124,-0.5224489 0.08444,-0.1583266 0.195061,-0.2902876 0.33228,-0.3958405 0.147772,-0.105574 0.311486,-0.1794933 0.490926,-0.2216943 0.179438,-0.052798 0.363977,-0.079063 0.553971,-0.079063 0.432761,0 0.733388,0.1319609 0.902269,0.3958405 0.168884,0.25332 0.253733,0.6492054 0.253733,1.187524 v 5.0188152 h 2.34301 V 7.8300168 c 0,-1.0555208 -0.221758,-1.8681145 -0.665078,-2.4380931 -0.432761,-0.5699813 -1.076693,-0.8547285 -1.931665,-0.8547285 -0.65442,0 -1.165876,0.1582473 -1.535305,0.4749059 -0.369433,0.3166533 -0.628407,0.6911949 -0.776182,1.1239632 h -0.09508 V 1.3229205 Z m 29.434895,0 v 4.7971233 h -0.07906 C 41.160959,5.655618 40.891571,5.2756076 40.469364,4.9800627 40.057712,4.6845152 39.58296,4.5371952 39.044644,4.5371952 c -1.055518,0 -1.852753,0.3690752 -2.391069,1.1079427 -0.538313,0.7388595 -0.807185,1.8158936 -0.807185,3.2302926 0,1.4143935 0.268872,2.4958675 0.807185,3.2452815 0.538316,0.738867 1.335551,1.108458 2.391069,1.108458 0.26388,0 0.516874,-0.04217 0.759645,-0.126605 0.253323,-0.07389 0.475081,-0.179557 0.665075,-0.316778 0.200547,-0.147773 0.369727,-0.316436 0.506945,-0.506428 0.137215,-0.200547 0.237424,-0.411893 0.300757,-0.633553 h 0.07906 v 1.393195 h 2.34301 V 1.3229205 Z M 6.2151233,1.7978264 c -0.7494164,0 -1.4245855,0.1270132 -2.0262321,0.3803385 C 3.5872472,2.4314929 3.0752759,2.8060344 2.653067,3.3021282 2.2308608,3.7876677 1.903431,4.3943811 1.6712168,5.122689 1.4390026,5.8404427 1.3229167,6.6639689 1.3229167,7.5928231 c 0,0.9394137 0.1160859,1.7624213 0.3483001,2.4696159 0.2322142,0.696648 0.559644,1.282536 0.9818502,1.757516 0.4222089,0.464425 0.9341802,0.818144 1.5358242,1.060915 0.6016466,0.232214 1.2768157,0.3483 2.0262321,0.3483 1.0238554,0 1.8682043,-0.226705 2.533179,-0.680577 C 9.4238338,12.084165 9.9675578,11.4293 10.379212,10.584887 L 8.4160227,9.4454223 c -0.1688809,0.4538663 -0.4328054,0.8442907 -0.791681,1.1715037 -0.3483213,0.316653 -0.818126,0.474908 -1.4092184,0.474908 -0.7071969,0 -1.2772099,-0.227224 -1.709973,-0.681095 C 4.0829441,9.9463103 3.8721162,9.276089 3.8721162,8.4000086 V 6.6269908 c 0,-0.8760804 0.2108279,-1.541354 0.6330341,-1.9952282 0.4327631,-0.4644258 1.0027761,-0.6965977 1.709973,-0.6965977 0.6016466,0 1.0555763,0.1428936 1.3616754,0.4278815 0.316656,0.2744391 0.5488252,0.6435143 0.6965977,1.1079427 L 10.34769,4.3945689 C 9.9465922,3.4973748 9.4132796,2.8430258 8.7483023,2.4313791 8.0833276,2.0091676 7.2389787,1.7978264 6.2151233,1.7978264 Z M 30.939713,2.4789221 v 1.3616755 c 0,0.2849932 -0.05804,0.5062325 -0.174149,0.6645592 -0.116107,0.1477724 -0.332401,0.2216917 -0.649057,0.2216917 h -0.58601 v 1.8210768 h 1.171504 v 4.0690007 c 0,0.791641 0.205883,1.393404 0.617535,1.805059 0.422206,0.411654 1.039849,0.617016 1.852599,0.617016 H 34.56533 V 11.21844 H 33.045527 V 6.5479253 h 1.646412 V 4.7268485 H 33.045527 V 2.4789221 Z m -6.467821,2.0582731 c -0.876081,0 -1.572591,0.1423696 -2.089796,0.4273629 -0.506648,0.2744338 -0.928822,0.659392 -1.266589,1.1554857 l 1.393197,1.235067 C 22.688142,7.1017829 22.914848,6.87508 23.189282,6.6745311 23.463715,6.4739849 23.833314,6.3737766 24.29774,6.3737766 c 0.496097,0 0.849815,0.1210336 1.060919,0.363802 0.211103,0.2322116 0.316777,0.5492274 0.316777,0.9503278 v 0.5224489 h -1.314132 c -1.097741,0 -1.968894,0.2162969 -2.612761,0.6490573 -0.633312,0.4222062 -0.949814,1.0710862 -0.949811,1.9471664 0,0.728313 0.221757,1.314201 0.665075,1.757516 0.443317,0.44332 1.081786,0.665075 1.915644,0.665075 0.633312,0 1.166106,-0.137427 1.598869,-0.411861 0.432763,-0.284993 0.712563,-0.696235 0.839224,-1.234548 h 0.09509 c 0.07389,0.44332 0.248015,0.79652 0.522449,1.0604 0.28499,0.263879 0.638709,0.39584 1.060918,0.39584 H 28.79411 V 11.21844 H 28.018443 V 7.5768026 c 0,-0.9921875 -0.295677,-1.7467368 -0.886767,-2.2639443 C 26.540587,4.7956508 25.654071,4.5371952 24.471892,4.5371952 Z m 15.348415,1.8996263 c 0.443317,0 0.80745,0.1111356 1.092441,0.3327955 0.295545,0.2111005 0.443383,0.5062644 0.443383,0.886251 v 2.454114 c 0,0.379986 -0.147838,0.681127 -0.443383,0.902787 -0.284991,0.211106 -0.649124,0.316259 -1.092441,0.316259 -0.443317,0 -0.812914,-0.152786 -1.108459,-0.458885 -0.28499,-0.316662 -0.427362,-0.738831 -0.427362,-1.2665898 V 8.1628123 c 0,-0.5277591 0.142372,-0.9449858 0.427362,-1.2510849 0.295545,-0.3166533 0.665142,-0.4749059 1.108459,-0.4749059 z M 24.535452,9.5399897 h 1.139984 v 0.9818533 c 0,0.379986 -0.142891,0.654319 -0.427881,0.823206 -0.274437,0.168878 -0.606814,0.253214 -0.997355,0.253214 -0.348321,0 -0.617194,-0.06846 -0.807186,-0.205674 -0.189994,-0.147772 -0.285255,-0.374478 -0.285255,-0.680577 V 10.4743 c 0,-0.6227608 0.459394,-0.9343103 1.377693,-0.9343103 z m 22.701457,0.8237223 c -0.47498,0 -0.828702,0.121036 -1.060916,0.363802 -0.22166,0.232214 -0.332798,0.533355 -0.332798,0.902787 v 0.316262 c 2e-6,0.369432 0.111138,0.675516 0.332798,0.918289 0.232214,0.232212 0.585936,0.348298 1.060916,0.348298 0.474988,0 0.823237,-0.116086 1.044897,-0.348298 0.232215,-0.242773 0.3483,-0.548857 0.3483,-0.918289 v -0.316262 c 0,-0.369432 -0.116085,-0.670573 -0.3483,-0.902787 -0.22166,-0.242766 -0.569909,-0.363802 -1.044897,-0.363802 z"
     style="font-style:normal;font-variant:normal;font-weight:bold;font-stretch:normal;font-size:medium;line-height:1.25;font-family:'IBM Plex Sans';-inkscape-font-specification:'IBM Plex Sans Bold';text-align:center;letter-spacing:0px;word-spacing:0px;text-anchor:middle;fill:#000000;fill-opacity:1;stroke:none;stroke-width:0.26458332" />
</svg>
